<?xml version="1.0" encoding="utf-8"?>
<!-- Generator: Adobe Illustrator 16.0.0, SVG Export Plug-In . SVG Version: 6.00 Build 0)  -->
<!DOCTYPE svg PUBLIC "-//W3C//DTD SVG 1.1//EN" "http://www.w3.org/Graphics/SVG/1.1/DTD/svg11.dtd">
<svg version="1.1" id="Calque_1" xmlns="http://www.w3.org/2000/svg" xmlns:xlink="http://www.w3.org/1999/xlink" x="0px" y="0px"
	 width="46.345px" height="74.958px" viewBox="0 0 46.345 74.958" enable-background="new 0 0 46.345 74.958" xml:space="preserve">
<g>
	<g>
		<defs>
			<path id="SVGID_1_" d="M45.898,46.25c-0.661,0-1.197-0.512-1.197-1.144v-1.144h-3.649c-0.661,0-1.196-0.512-1.196-1.144
				l-0.001-3.798l-26.679-8.199v11.997c0,0.433-0.256,0.829-0.661,1.023c-0.406,0.193-0.891,0.151-1.254-0.108
				C4.8,39.094,1.094,32.01,1.094,24.296C1.094,10.899,12.499,0,26.516,0c8.071,0,15.485,3.542,20.338,9.716
				c0.396,0.505,0.29,1.222-0.238,1.601c-0.528,0.38-1.278,0.278-1.675-0.227c-4.398-5.594-11.114-8.803-18.425-8.803
				c-12.698,0-23.029,9.874-23.029,22.009c0,6.186,2.631,11.926,7.296,16.077v-11.12c0-0.366,0.183-0.709,0.492-0.924
				c0.31-0.215,0.707-0.276,1.071-0.165l29.072,8.935c0.495,0.152,0.83,0.592,0.83,1.088l0,3.488h2.453v-1.201
				c0-0.631,0.536-1.144,1.197-1.144s1.196,0.512,1.196,1.144v4.632C47.094,45.738,46.559,46.25,45.898,46.25z"/>
		</defs>
		<use xlink:href="#SVGID_1_"  overflow="visible" fill="#FFFFFF"/>
		<clipPath id="SVGID_2_">
			<use xlink:href="#SVGID_1_"  overflow="visible"/>
		</clipPath>
	</g>
	<g>
		<defs>
			<path id="SVGID_3_" d="M45.898,57.137H1.471c-0.188,0-0.342-0.146-0.342-0.327c0-0.18,0.153-0.326,0.342-0.326h44.427
				c0.189,0,0.342,0.146,0.342,0.326C46.24,56.99,46.087,57.137,45.898,57.137z"/>
		</defs>
		<use xlink:href="#SVGID_3_"  overflow="visible" fill="#FFFFFF"/>
		<clipPath id="SVGID_4_">
			<use xlink:href="#SVGID_3_"  overflow="visible"/>
		</clipPath>
	</g>
	<g>
		<defs>
			<path id="SVGID_5_" d="M1.141,74.968l3.318-7.775l3.318,7.775H6.568l-0.244-0.615H2.605L2.35,74.968H1.141z M3.005,73.356h2.908
				l-1.454-3.564L3.005,73.356z"/>
		</defs>
		<use xlink:href="#SVGID_5_"  overflow="visible" fill="#FFFFFF"/>
		<clipPath id="SVGID_6_">
			<use xlink:href="#SVGID_5_"  overflow="visible"/>
		</clipPath>
	</g>
	<g>
		<defs>
			<path id="SVGID_7_" d="M13.848,67.204h1.166v5.197c0,0.36-0.072,0.696-0.216,1.008c-0.145,0.311-0.342,0.582-0.594,0.811
				c-0.252,0.23-0.544,0.412-0.877,0.546c-0.333,0.135-0.692,0.202-1.077,0.202c-0.377,0-0.73-0.067-1.06-0.202
				c-0.329-0.134-0.618-0.316-0.865-0.546c-0.248-0.229-0.442-0.5-0.583-0.811c-0.141-0.312-0.211-0.647-0.211-1.008v-5.197h1.166
				v5.197c0,0.205,0.041,0.397,0.122,0.578c0.082,0.18,0.192,0.339,0.333,0.478c0.14,0.138,0.307,0.246,0.5,0.323
				c0.192,0.078,0.396,0.117,0.61,0.117c0.222,0,0.429-0.039,0.622-0.117c0.192-0.078,0.36-0.186,0.505-0.323
				c0.144-0.138,0.257-0.297,0.338-0.478c0.082-0.181,0.122-0.373,0.122-0.578V67.204z"/>
		</defs>
		<use xlink:href="#SVGID_7_"  overflow="visible" fill="#FFFFFF"/>
		<clipPath id="SVGID_8_">
			<use xlink:href="#SVGID_7_"  overflow="visible"/>
		</clipPath>
	</g>
	<g>
		<defs>
			<path id="SVGID_9_" d="M22.361,70.726c-0.104,0.318-0.257,0.604-0.46,0.859c-0.204,0.255-0.454,0.47-0.75,0.647
				c-0.015,0.014-0.033,0.025-0.055,0.032c-0.022,0.007-0.041,0.018-0.056,0.032l1.432,2.694h-1.254l-1.254-2.344
				c-0.089,0.014-0.177,0.025-0.266,0.032s-0.186,0.01-0.289,0.01h-1.454v2.302h-1.188v-7.796h2.642
				c0.333,0,0.646,0.041,0.938,0.122c0.292,0.082,0.561,0.193,0.804,0.334c0.6,0.36,1.003,0.866,1.21,1.517
				c0.007,0.036,0.015,0.067,0.022,0.096c0.007,0.028,0.018,0.06,0.033,0.095v0.053c0.015,0.035,0.024,0.074,0.028,0.117
				s0.009,0.085,0.017,0.127v0.011c0.007,0.042,0.011,0.085,0.011,0.127s0,0.089,0,0.138v0.011v0.021c0,0.042,0,0.085,0,0.127
				c0,0.042-0.004,0.085-0.011,0.127v0.021c-0.007,0.042-0.013,0.083-0.017,0.122c-0.004,0.039-0.013,0.079-0.028,0.122v0.042
				C22.387,70.602,22.368,70.669,22.361,70.726z M19.553,71.691c0.245,0,0.468-0.05,0.672-0.149c0.203-0.1,0.379-0.231,0.527-0.394
				c0.148-0.164,0.267-0.35,0.355-0.559c0.089-0.209,0.133-0.427,0.133-0.654c0-0.219-0.044-0.436-0.133-0.649
				c-0.088-0.213-0.207-0.399-0.355-0.559s-0.324-0.289-0.527-0.388c-0.204-0.099-0.427-0.149-0.672-0.149h-1.587v3.501H19.553z"/>
		</defs>
		<use xlink:href="#SVGID_9_"  overflow="visible" fill="#FFFFFF"/>
		<clipPath id="SVGID_10_">
			<use xlink:href="#SVGID_9_"  overflow="visible"/>
		</clipPath>
	</g>
	<g>
		<defs>
			<path id="SVGID_11_" d="M28.276,67.172c0.562,0,1.091,0.103,1.587,0.307c0.496,0.206,0.927,0.485,1.293,0.838
				s0.655,0.769,0.866,1.246c0.211,0.477,0.316,0.988,0.316,1.533c0,0.537-0.105,1.043-0.316,1.517
				c-0.211,0.474-0.5,0.887-0.866,1.241s-0.797,0.633-1.293,0.838S28.838,75,28.276,75c-0.563,0-1.09-0.103-1.582-0.308
				c-0.492-0.205-0.921-0.484-1.288-0.838s-0.655-0.767-0.866-1.241c-0.211-0.474-0.316-0.98-0.316-1.517
				c0-0.544,0.105-1.056,0.316-1.533c0.211-0.478,0.5-0.893,0.866-1.246s0.795-0.633,1.288-0.838
				C27.187,67.275,27.714,67.172,28.276,67.172z M28.276,73.907c0.385,0,0.749-0.074,1.093-0.222
				c0.344-0.148,0.644-0.349,0.899-0.603c0.255-0.253,0.457-0.551,0.605-0.893c0.148-0.342,0.222-0.706,0.222-1.094
				s-0.074-0.754-0.222-1.099c-0.148-0.345-0.35-0.646-0.605-0.904c-0.255-0.257-0.555-0.459-0.899-0.607
				c-0.344-0.147-0.708-0.222-1.093-0.222s-0.748,0.074-1.088,0.222c-0.34,0.148-0.638,0.351-0.894,0.607
				c-0.255,0.257-0.457,0.559-0.604,0.904c-0.148,0.345-0.222,0.711-0.222,1.099s0.074,0.752,0.222,1.094
				c0.148,0.342,0.35,0.64,0.604,0.893c0.255,0.254,0.553,0.455,0.894,0.603S27.892,73.907,28.276,73.907z"/>
		</defs>
		<use xlink:href="#SVGID_11_"  overflow="visible" fill="#FFFFFF"/>
		<clipPath id="SVGID_12_">
			<use xlink:href="#SVGID_11_"  overflow="visible"/>
		</clipPath>
	</g>
	<g>
		<defs>
			<path id="SVGID_13_" d="M39.686,70.726c-0.104,0.318-0.257,0.604-0.46,0.859c-0.204,0.255-0.453,0.47-0.749,0.647
				c-0.015,0.014-0.033,0.025-0.056,0.032c-0.022,0.007-0.041,0.018-0.056,0.032l1.432,2.694h-1.254l-1.254-2.344
				c-0.089,0.014-0.178,0.025-0.267,0.032s-0.185,0.01-0.289,0.01H35.28v2.302h-1.188v-7.796h2.642c0.333,0,0.645,0.041,0.938,0.122
				c0.292,0.082,0.56,0.193,0.805,0.334c0.599,0.36,1.002,0.866,1.209,1.517c0.007,0.036,0.015,0.067,0.022,0.096
				s0.019,0.06,0.034,0.095v0.053c0.014,0.035,0.024,0.074,0.028,0.117c0.003,0.042,0.009,0.085,0.017,0.127v0.011
				c0.007,0.042,0.011,0.085,0.011,0.127s0,0.089,0,0.138v0.011v0.021c0,0.042,0,0.085,0,0.127c0,0.042-0.003,0.085-0.011,0.127
				v0.021c-0.008,0.042-0.013,0.083-0.017,0.122c-0.004,0.039-0.014,0.079-0.028,0.122v0.042
				C39.711,70.602,39.692,70.669,39.686,70.726z M36.877,71.691c0.245,0,0.468-0.05,0.672-0.149c0.203-0.1,0.378-0.231,0.527-0.394
				c0.148-0.164,0.266-0.35,0.355-0.559c0.089-0.209,0.133-0.427,0.133-0.654c0-0.219-0.044-0.436-0.133-0.649
				s-0.207-0.399-0.355-0.559c-0.148-0.16-0.324-0.289-0.527-0.388c-0.204-0.099-0.427-0.149-0.672-0.149h-1.587v3.501H36.877z"/>
		</defs>
		<use xlink:href="#SVGID_13_"  overflow="visible" fill="#FFFFFF"/>
		<clipPath id="SVGID_14_">
			<use xlink:href="#SVGID_13_"  overflow="visible"/>
		</clipPath>
	</g>
	<g>
		<defs>
			<path id="SVGID_15_" d="M42.727,73.844h3.618v1.114H41.55v-7.743h4.717v1.092h-3.541v1.226v0.634v0.771h3.186v1.061h-3.186
				V73.844z"/>
		</defs>
		<use xlink:href="#SVGID_15_"  overflow="visible" fill="#FFFFFF"/>
		<clipPath id="SVGID_16_">
			<use xlink:href="#SVGID_15_"  overflow="visible"/>
		</clipPath>
	</g>
</g>
</svg>
